<svg width="12" height="12" viewBox="0 0 12 12" fill="none" xmlns="http://www.w3.org/2000/svg">
<path fill-rule="evenodd" clip-rule="evenodd" d="M9.47309 3.5L10.0625 3.50004C10.6491 3.50004 11 3.97593 11 4.56254V5.00006C11 5.55235 10.5523 6.00006 10 6.00006H6.5V4.50006L5.5 4.50004V6.00006H2C1.44772 6.00006 1 5.55235 1 5.00006V4.56254C1 3.97593 1.41339 3.50004 2 3.50004H2.60688C2.48011 3.25952 2.40625 2.98365 2.40625 2.68754C2.40625 1.76575 3.10629 1.00004 3.98633 1.00004C4.43124 1.00004 4.78709 1.13615 5.13658 1.45226C5.35681 1.65145 5.51248 1.92224 5.7143 2.27331C5.79875 2.42021 5.89128 2.58117 6 2.75681L6.01268 2.73633C6.37459 2.1516 6.6346 1.7315 6.94338 1.45222C7.29288 1.1361 7.64873 1 8.09364 1C8.97368 1 9.67372 1.76571 9.67372 2.6875C9.67372 2.9836 9.59986 3.25947 9.47309 3.5ZM7.5 2.13244C7.26742 2.35557 7.0166 2.76194 6.57284 3.50004L8 3.50007C8.5 3.50007 8.79872 3.15065 8.79872 2.6875C8.79872 2.22435 8.46788 1.875 8.09364 1.875C7.9884 1.875 7.89975 1.88529 7.81 1.91985C7.71993 1.95452 7.62046 2.01687 7.5 2.13244ZM4.27083 1.9199C4.181 1.88535 4.09211 1.87504 3.98633 1.87504C3.61218 1.87504 3.28116 2.22431 3.2793 2.68776C3.2794 3.1508 3.5 3.50004 3.98438 3.50004H5.42717C5.27307 3.24372 5.15194 3.02741 5.04973 2.84489C4.8576 2.50179 4.73233 2.27809 4.58066 2.13244C4.46033 2.01689 4.36094 1.95457 4.27083 1.9199Z" fill="#CC7600"/>
<path d="M1.5 7.00006V9.81257C1.5 10.5001 2 11.0001 2.6875 11.0001H9.4375C10 11.0001 10.5 10.5001 10.5 9.81257V7.00006H6.5V11.0001H5.5V7.00006H1.5Z" fill="#CC7600"/>
</svg>
