<svg width="14" height="12" viewBox="0 0 14 12" fill="none" xmlns="http://www.w3.org/2000/svg">
<path fill-rule="evenodd" clip-rule="evenodd" d="M1 3.5V3H0.5C0.223858 3 0 2.77614 0 2.5C0 2.22386 0.223858 2 0.5 2H1.26756C1.61337 1.4022 2.25972 1 3 1H6.5C6.77614 1 7 1.22386 7 1.5V6C7 6.55228 6.55228 7 6 7H2C1.5 7 1 6.75 1 6H1.5C1.77614 6 2 5.77614 2 5.5C2 5.22386 1.77614 5 1.5 5H1V4.5H2.5C2.77614 4.5 3 4.27614 3 4C3 3.72386 2.77614 3.5 2.5 3.5H1ZM1 3C1 2.63571 1.09739 2.29417 1.26756 2H3.5C3.77614 2 4 2.22386 4 2.5C4 2.77614 3.77614 3 3.5 3H1Z" fill="white"/>
<path d="M1 3.5H0.5C0.223858 3.5 0 3.72386 0 4C0 4.27614 0.223858 4.5 0.5 4.5H1V3.5Z" fill="white"/>
<path d="M1 5H0.5C0.223858 5 0 5.22386 0 5.5C0 5.77614 0.223858 6 0.5 6H1V5Z" fill="white"/>
<path d="M1.5 7.5C0.947715 7.5 0.5 7.94772 0.5 8.5C0.5 9.60614 1.39386 10.5 2.5 10.5H2.58535C2.53008 10.3436 2.5 10.1753 2.5 10C2.5 9.17157 3.17157 8.5 4 8.5C4.82843 8.5 5.5 9.17157 5.5 10C5.5 10.1753 5.46992 10.3436 5.41465 10.5H6.58535C6.53008 10.3436 6.5 10.1753 6.5 10C6.5 9.17157 7.17157 8.5 8 8.5C8.82843 8.5 9.5 9.17157 9.5 10C9.5 10.1753 9.46992 10.3436 9.41465 10.5H9.5C10.6061 10.5 11.5 9.60614 11.5 8.5V7.5H10C9.44886 7.5 9 7.05114 9 6.5V5C9 4.44886 9.44886 4 10 4H10.435L9.72405 2.75678L9.7224 2.75394C9.45515 2.29366 8.96258 2 8.42001 2H7.5V6C7.5 6.82843 6.82843 7.5 6 7.5H1.5Z" fill="white"/>
<path d="M10 4.5C9.725 4.5 9.5 4.725 9.5 5V6.5C9.5 6.775 9.725 7 10 7H11.5V6L10.645 4.5H10Z" fill="white"/>
<path d="M8.87512 10.4843C8.95469 10.3408 9 10.1757 9 10C9 9.44772 8.55228 9 8 9C7.44772 9 7 9.44772 7 10C7 10.1757 7.04531 10.3408 7.12488 10.4843C7.29543 10.7918 7.62341 11 8 11C8.37659 11 8.70457 10.7918 8.87512 10.4843Z" fill="white"/>
<path d="M3.12488 10.4843C3.04531 10.3408 3 10.1757 3 10C3 9.44772 3.44772 9 4 9C4.55228 9 5 9.44772 5 10C5 10.1757 4.95469 10.3408 4.87512 10.4843C4.70457 10.7918 4.37659 11 4 11C3.62341 11 3.29543 10.7918 3.12488 10.4843Z" fill="white"/>
</svg>